<svg version="1.1" id="svg2" xml:space="preserve" viewBox="121.07389881355934 314.3056 556.0430908474576 496.15384" xmlns="http://www.w3.org/2000/svg" style="max-height: 500px" width="556.0430908474576" height="496.15384"><metadata id="metadata8">image/svg+xml</metadata><defs id="defs6"><clipPath clipPathUnits="userSpaceOnUse" id="clipPath18"><path d="M 0,841.89 H 595.28 V 0 H 0 Z" id="path16"/></clipPath></defs><g id="g10" transform="matrix(1.3333333,0,0,-1.3333333,0,1122.52)"><g id="g12"><g id="g14" clip-path="url(#clipPath18)"><g id="g20" transform="translate(495.0635,602.6104)"><path d="m 0,0 c -1.864,1.304 -4.01,1.934 -6.376,1.874 -3.208,-0.081 -6.258,-1.376 -10.119,-3.015 -2.046,-0.868 -4.365,-1.853 -6.99,-2.763 -4.109,-1.425 -12.418,-3.359 -22.937,-5.806 -12.738,-2.963 -28.59,-6.652 -45.698,-11.426 -5.63,-1.571 -10.465,-3.303 -14.655,-5.129 -36.489,6.735 -74.251,10.155 -112.657,10.155 -48.961,0 -96.886,-5.533 -142.445,-16.445 l -1.435,-0.343 c -1.343,1.012 -2.738,2.173 -4.195,3.389 -4.987,4.163 -10.144,8.467 -15.947,8.755 -3.532,0.175 -8.54,-1.075 -12.341,-8.024 -9.03,-16.511 -2.552,-34.988 6.366,-46.84 -2.269,-10.119 -1.222,-18.436 8.164,-31.477 -0.063,-12.227 1.513,-21.321 8.093,-30.08 v -28.94 c 0,-100.662 45.883,-161.53 148.765,-197.357 l 4.975,-1.737 4.966,1.734 c 52.039,18.122 89.487,42.655 113.8,75.496 9.8,0.076 27.103,1.208 39.072,7.591 15.156,8.082 -0.948,46.25 -9.527,59.342 3.642,16.845 5.428,35.113 5.428,54.931 v 16.222 c 16.338,8.862 23.357,22.297 25.001,29.845 12.602,8.945 18.982,20.76 18.253,33.744 8.107,6.717 10.027,10.012 14.168,17.119 l 1.022,1.751 c 5.04,8.597 4.379,22.052 3.887,27.275 1.537,2.691 4.481,8.16 6.468,13.783 C 5.758,-18.871 7.259,-5.074 0,0" style="fill:#ffffff;fill-opacity:1;fill-rule:nonzero;stroke:none" id="path22"/></g><g id="g24" transform="translate(275.6313,246.7041)"><path d="M 0,0 2.079,0.727 C 98.812,34.411 144.957,90.945 144.957,189.791 V 313.72 l -4.557,1.091 C 94.467,325.812 47.354,331.014 0,331.014 c -47.354,0 -94.467,-5.202 -140.4,-16.203 l -4.558,-1.091 V 189.791 c 0,-98.846 46.146,-155.38 142.88,-189.064 z" style="fill:#24b3ed;fill-opacity:1;fill-rule:evenodd;stroke:none" id="path26"/></g><g id="g28" transform="translate(377.9409,443.1563)"><path d="m 0,0 v -6.458 c 0,-1.214 -0.023,-2.401 -0.039,-3.598 8.962,-4.906 20.292,-14.074 33.575,-30.848 1.461,10.944 2.189,22.516 2.189,34.766 V 11.985 C 33.829,6.521 10.938,1.908 0,0" style="fill:#05346d;fill-opacity:1;fill-rule:nonzero;stroke:none" id="path30"/></g><g id="g32" transform="translate(275.6299,571.6504)"><path d="m 0,0 c -45.993,0.246 -92.006,-4.903 -138.036,-15.926 v -118.706 c 0,-95.044 43.466,-149.579 138.036,-182.519 64.31,22.399 104.979,54.792 124.426,103.111 -5.053,4.251 -18.84,15.651 -29.242,22.437 -5.981,-20.564 -15.818,-37.638 -29.836,-52.099 -11.455,0.668 -35.043,1.778 -65.348,1.778 -28.227,0 -52.189,-0.963 -65.476,-1.636 -21.34,22.076 -32.969,50.228 -36.011,87.594 -7.414,8.148 -18.584,13.614 -23.352,17.844 10.657,-2.723 18.251,-4.957 22.703,-6.338 -0.106,3.115 -0.175,6.272 -0.175,9.508 v 93.692 c 23.037,4.355 42.592,6.843 63.063,8.099 0,0 24.189,0.941 39.248,1.114 15.056,0.174 39.245,-1.114 39.245,-1.114 20.474,-1.256 40.029,-3.744 63.066,-8.099 v -81.541 c 10.082,1.688 29.238,4.931 35.725,6.292 V -15.926 C 92.006,-4.903 45.995,0.246 0,0" style="fill:#05346d;fill-opacity:1;fill-rule:nonzero;stroke:none" id="path34"/></g><g id="g36" transform="translate(330.7495,403.1104)"><path d="m 0,0 c -3.885,3.36 -9.209,5.908 -15.184,7.104 -1.247,0.251 -2.5,0.442 -3.749,0.568 1.785,13.251 0.624,27.278 -3.396,40.729 l -1.221,4.091 c 2.78,1.394 5.474,2.897 8.07,4.495 C -4.692,46.297 2.004,31.483 2.004,15.129 2.004,9.93 1.296,4.857 0,0 m -35.063,-39.565 c 0.007,2.03 -0.256,4.057 -0.868,6.032 -1.584,5.165 -5.146,9.406 -10.067,12.257 1.401,0.748 2.829,1.338 4.374,1.792 0.606,0.173 1.256,0.329 1.939,0.472 3.955,-4.193 10.062,-7.373 16.926,-8.749 1.829,-0.364 3.662,-0.548 5.485,-0.644 -5.141,-4.696 -11.14,-8.497 -17.789,-11.16 m -21.811,62.215 -0.83,-0.009 c -1.988,-0.059 -3.953,-0.287 -5.849,-0.685 -6.487,-1.371 -11.295,-4.555 -13.536,-8.671 -0.12,9.59 1.243,18.891 4.057,27.335 11.265,0.203 22.24,1.936 32.711,5.158 l 0.92,-3.165 c 3.001,-10.336 3.97,-21.041 2.837,-31.113 -1.954,6.604 -9.948,11.15 -20.31,11.15 m -9.778,-70.23 c -3.918,0 -6.733,1.53 -7.174,2.963 l -0.061,0.227 c -0.112,0.639 0.155,1.491 0.697,2.399 1.779,-2.822 4.913,-4.847 8.648,-5.435 -0.707,-0.097 -1.412,-0.154 -2.11,-0.154 m -23.367,13.918 c -3.353,2.284 -6.426,4.895 -9.203,7.765 0.577,-0.03 1.156,-0.055 1.749,-0.055 1.121,0 2.264,0.056 3.39,0.168 2.082,0.204 4.137,0.602 6.088,1.176 4.42,1.278 8.275,3.485 11.007,6.249 0.994,-0.368 1.55,-0.709 1.794,-0.893 0.343,-0.26 0.617,-0.531 0.904,-0.799 -7.036,-2.858 -12.622,-7.762 -15.729,-13.611 m -24.044,34.244 c -1.211,4.705 -1.867,9.586 -1.867,14.547 0,10.918 2.994,21.143 8.187,29.921 0.096,-0.028 0.192,-0.055 0.287,-0.082 l 0.333,-0.161 0.606,-0.094 c 3.843,-1.046 7.774,-1.898 11.751,-2.546 -3,-10.992 -4.159,-22.851 -3.423,-34.858 -1.857,-0.213 -3.707,-0.561 -5.517,-1.084 -4.21,-1.231 -7.732,-3.207 -10.357,-5.643 m 57.107,73.508 c 0.907,0 1.809,-0.028 2.707,-0.069 1.746,-2.783 3.383,-5.673 4.869,-8.687 -0.122,-0.032 -0.727,-0.193 -0.947,-0.252 -0.898,-0.232 -1.81,-0.453 -2.83,-0.69 l -0.254,-0.06 c -0.964,-0.209 -1.914,-0.412 -2.856,-0.599 l -0.347,-0.056 c -0.944,-0.181 -2.284,-0.409 -3.265,-0.567 -0.998,-0.153 -2.005,-0.296 -3.013,-0.417 l -0.548,-0.067 c -0.863,-0.103 -1.729,-0.191 -2.596,-0.271 l -0.329,-0.003 -0.281,-0.053 c -0.979,-0.084 -1.961,-0.148 -2.951,-0.211 l -0.077,-0.004 c -1.137,-0.057 -2.287,-0.101 -3.414,-0.128 l -0.406,-0.009 c -0.587,-0.009 -1.183,-0.022 -1.775,-0.022 -2.411,0 -4.861,0.087 -7.277,0.259 l -0.438,0.038 c -0.931,0.069 -1.858,0.158 -2.829,0.259 l -1.046,0.118 c -0.655,0.076 -1.308,0.163 -1.963,0.251 l -1.31,0.179 c -0.312,0.045 -0.623,0.1 -0.938,0.148 9.638,6.861 21.409,10.913 34.114,10.913 M 13.323,55.247 c -0.177,0.313 -0.355,0.622 -0.535,0.931 -0.374,0.632 -0.755,1.255 -1.145,1.876 -0.46,0.738 -0.927,1.471 -1.411,2.196 -0.064,0.095 -0.128,0.188 -0.192,0.284 -3.641,5.412 -7.93,10.428 -12.852,14.878 -2.419,2.184 -5.022,4.255 -7.724,6.147 -10.364,7.304 -22.465,12.112 -35.007,13.902 -3.813,0.54 -7.653,0.813 -11.413,0.813 -0.592,0 -1.17,-0.009 -1.766,-0.02 -19.141,-0.413 -37.38,-7.64 -51.6,-20.168 -0.83,1.049 -5.016,6.469 -9.235,14.323 -4.71,8.771 -0.945,22.663 -13.447,32.707 -9.72,7.754 -55.416,28.172 -64.614,34.286 -9.197,6.116 -19.164,18.833 -25.629,6.458 -7.511,-14.379 -1.467,-31.364 8.382,-42.625 -2.628,-10.536 -2.026,-17.62 8.271,-30.838 0.024,-17.205 2.724,-25.894 15.346,-36.241 -4.363,-25.729 21.165,-26.555 27.444,-29.172 7.033,-2.929 18.414,-7.188 26.107,-15.883 0.001,0.023 0.003,0.045 0.003,0.069 1.146,-15.493 6.713,-30.063 15.68,-42.187 l 2.228,-2.842 c 7.959,-9.817 12.034,-13.186 30.25,-23.147 18.217,-9.96 38.193,-6.633 38.193,-6.633 23.828,1.634 44.74,13.631 58.45,31.385 l 2.287,3.112 c 9.212,13.172 14.611,29.158 14.611,46.271 0,14.594 -3.899,28.284 -10.682,40.118" style="fill:#05346d;fill-opacity:1;fill-rule:nonzero;stroke:none" id="path38"/></g><g id="g40" transform="translate(358.0093,399.3311)"><path d="m 0,0 c 10.196,-7.559 20.418,-14.844 30.387,-22.372 4.967,-3.772 9.897,-7.567 14.637,-11.521 4.74,-3.952 9.359,-8.022 13.464,-12.392 2.06,-2.164 3.989,-4.419 5.608,-6.756 1.638,-2.312 2.96,-4.77 3.495,-7.04 0.286,-1.132 0.387,-2.202 0.197,-3.156 -0.185,-0.958 -0.463,-1.887 -1.141,-2.769 -0.077,-0.106 -0.136,-0.23 -0.226,-0.338 l -0.287,-0.319 c -0.203,-0.212 -0.384,-0.439 -0.59,-0.653 -0.491,-0.389 -0.89,-0.837 -1.455,-1.205 -0.542,-0.373 -1.046,-0.788 -1.672,-1.106 -0.598,-0.344 -1.185,-0.709 -1.848,-0.994 -2.559,-1.253 -5.397,-2.255 -8.323,-3.065 -2.916,-0.845 -5.938,-1.509 -8.978,-2.124 -3.053,-0.604 -6.136,-1.121 -9.243,-1.628 l -9.375,-1.433 c 1.577,-0.2 3.153,-0.336 4.742,-0.508 1.581,-0.136 3.164,-0.201 4.753,-0.315 3.181,-0.165 6.37,-0.175 9.577,-0.087 1.6,0.066 3.205,0.173 4.818,0.289 1.606,0.171 3.216,0.302 4.834,0.58 3.231,0.474 6.477,1.201 9.711,2.416 0.81,0.267 1.615,0.654 2.42,1.021 0.803,0.338 1.59,0.829 2.387,1.287 0.399,0.211 0.783,0.485 1.162,0.779 l 1.143,0.865 c 0.371,0.311 0.725,0.67 1.081,1.017 0.364,0.331 0.713,0.698 1.027,1.119 1.353,1.534 2.341,3.591 2.808,5.69 0.095,0.528 0.248,1.067 0.267,1.592 l 0.08,1.588 c -0.053,1.016 -0.093,2.082 -0.317,3.024 -0.76,3.921 -2.531,7.095 -4.401,9.974 -1.926,2.865 -4.088,5.421 -6.334,7.835 -4.55,4.781 -9.489,8.961 -14.6,12.834 -5.117,3.878 -10.418,7.431 -15.832,10.765 C 23.111,-10.491 11.846,-4.615 0,0" style="fill:#05346d;fill-opacity:1;fill-rule:nonzero;stroke:none" id="path42"/></g><g id="g44" transform="translate(356.3452,432.8379)"><path d="m 0,0 c 1.526,-1.349 3.233,-2.468 4.859,-3.615 l 4.894,-3.382 c 1.611,-1.126 3.226,-2.233 4.794,-3.392 0.778,-0.584 1.59,-1.112 2.365,-1.703 0.772,-0.592 1.534,-1.19 2.316,-1.76 6.163,-4.663 11.964,-9.657 17.433,-14.997 2.808,-2.603 5.324,-5.484 7.995,-8.236 2.454,-2.948 5.116,-5.744 7.449,-8.83 5.007,-5.94 9.307,-12.43 14.292,-18.853 -1.895,7.83 -4.819,15.502 -9.022,22.474 l -1.537,2.645 c -0.494,0.894 -1.141,1.685 -1.708,2.537 -1.151,1.68 -2.362,3.325 -3.56,4.986 -1.303,1.572 -2.649,3.116 -3.975,4.676 -1.308,1.582 -2.832,2.956 -4.262,4.422 -5.86,5.719 -12.498,10.654 -19.662,14.539 -1.798,0.964 -3.598,1.909 -5.471,2.712 -0.932,0.406 -1.844,0.854 -2.787,1.219 l -2.834,1.093 C 7.772,-2.054 3.893,-1.038 0,0" style="fill:#05346d;fill-opacity:1;fill-rule:nonzero;stroke:none" id="path46"/></g><g id="g48" transform="translate(288.937,367.7725)"><path d="m 0,0 c -1.643,5.35 -6.325,9.198 -12.297,10.856 -0.901,-2.017 -1.463,-4.18 -1.823,-6.037 3.882,-1.095 6.906,-3.421 7.902,-6.643 1.341,-4.388 -1.346,-9.425 -6.263,-12.77 -1.791,-1.232 -3.881,-2.234 -6.177,-2.912 -2.086,-0.599 -4.168,-0.89 -6.181,-0.89 -6.273,0 -11.661,2.797 -13.069,7.342 -0.05,0.184 -0.099,0.373 -0.153,0.559 -1.313,5.807 4.144,12.524 12.283,15.025 0.104,0.065 0.191,0.132 0.289,0.195 -0.087,2.328 -0.226,4.367 -0.594,6.194 -0.405,-0.096 -0.805,-0.204 -1.216,-0.32 -9.926,-2.89 -16.757,-10.391 -17.4,-18.145 -0.136,-1.777 0.029,-3.562 0.56,-5.317 0.981,-3.179 3.025,-5.831 5.785,-7.815 3.55,-2.537 8.278,-3.969 13.393,-3.969 1.653,0 3.34,0.155 5.052,0.456 1.012,0.179 2.057,0.42 3.081,0.714 6.35,1.859 11.429,5.606 14.436,10.086 C 0.378,-9.27 1.395,-4.514 0,0" style="fill:#ffffff;fill-opacity:1;fill-rule:nonzero;stroke:none" id="path50"/></g><g id="g52" transform="translate(300.2837,391.3281)"><path d="m 0,0 c 1.191,0.07 2.423,0.126 3.744,0.188 0.801,-0.632 1.922,-1.142 3.193,-1.384 1.32,-0.272 2.612,-0.225 3.642,0.074 1.211,0.365 2.083,1.053 2.291,1.986 0.388,1.719 -1.636,3.574 -4.534,4.16 C 7.003,5.287 5.733,5.235 4.703,4.935 4.004,4.736 3.43,4.423 3.019,4.017 1.525,4.06 -0.272,4.114 -2.226,4.241 -4.005,4.358 -5.903,4.52 -7.783,4.739 c -4.063,0.487 -8.05,1.27 -10.61,2.566 -2.452,1.239 -4.008,2.841 -5.003,4.452 -0.811,1.307 -1.267,2.627 -1.526,3.764 -0.152,0.654 -0.25,1.25 -0.313,1.753 0.259,0.039 0.519,0.1 0.756,0.162 1.125,0.33 1.923,0.961 2,1.748 0.148,1.307 -1.69,2.544 -4.093,2.76 -0.954,0.096 -1.852,0 -2.6,-0.216 -1.133,-0.325 -1.919,-0.959 -2.002,-1.749 -0.119,-1.087 1.132,-2.12 2.951,-2.564 -0.208,-0.561 -0.53,-1.219 -0.975,-1.945 -0.658,-1.062 -1.642,-2.257 -3.079,-3.505 -0.863,-0.761 -1.896,-1.527 -3.151,-2.289 -1.697,-1.032 -3.868,-1.888 -6.238,-2.577 -2.186,-0.634 -4.531,-1.135 -6.799,-1.528 -1.719,-0.3 -3.398,-0.542 -4.913,-0.723 -2.35,-0.28 -4.363,-0.452 -5.61,-0.54 -0.768,1.339 -3.127,1.996 -5.689,1.478 -0.257,-0.045 -0.511,-0.109 -0.745,-0.183 -2.502,-0.721 -4.177,-2.417 -3.845,-3.981 0.346,-1.719 2.985,-2.637 5.882,-2.055 0.262,0.049 0.519,0.106 0.756,0.184 1.004,0.29 1.87,0.733 2.53,1.267 1.265,0.045 3.343,0.078 5.7,-0.049 1.729,-0.089 3.592,-0.275 5.444,-0.587 3,-0.523 5.918,-1.423 7.934,-2.941 3.642,-2.749 5.207,-5.918 5.932,-9.595 0.389,-1.936 0.534,-4.004 0.612,-6.239 0.024,-0.596 0.05,-1.193 0.061,-1.82 -2.225,-0.822 -3.77,-2.61 -3.74,-4.638 0.062,-2.747 2.971,-4.902 6.522,-4.82 0.729,0.021 1.428,0.127 2.094,0.321 2.498,0.735 4.285,2.633 4.249,4.802 -0.018,1.715 -1.156,3.202 -2.87,4.054 0.094,0.703 0.223,1.469 0.366,2.251 0.383,1.935 0.942,4.056 1.803,6.073 1.149,2.691 2.826,5.193 5.28,6.773 2.608,1.685 5.165,2.818 7.852,3.608 1.986,0.572 4.049,0.944 6.25,1.227 C -4.564,-0.304 -2.376,-0.134 0,0" style="fill:#ffffff;fill-opacity:1;fill-rule:nonzero;stroke:none" id="path54"/></g><g id="g56" transform="translate(314.3452,404.1826)"><path d="m 0,0 c -4.874,0.985 -9.562,0.789 -13.346,-0.321 -3.681,-1.064 -6.49,-3.001 -7.79,-5.568 2.095,-0.238 4.427,-0.415 6.922,-0.544 0.683,0.392 1.509,0.732 2.44,1.007 3.049,0.885 6.811,0.953 10.596,0.203 8.239,-1.658 12.885,-6.457 12.329,-8.925 -0.297,-1.248 -2.026,-2.485 -4.546,-3.215 -3.04,-0.889 -6.793,-0.961 -10.574,-0.192 -2.419,0.481 -4.521,1.239 -6.28,2.121 -0.012,0.01 -0.04,0.021 -0.049,0.033 -0.271,0.13 -0.526,0.268 -0.765,0.401 -2.864,-0.133 -5.551,-0.266 -8.078,-0.528 2.931,-3.306 7.947,-6.06 13.984,-7.27 4.869,-0.964 9.563,-0.78 13.337,0.326 4.447,1.289 7.638,3.836 8.399,7.24 C 18.01,-8.933 10.574,-2.113 0,0" style="fill:#ffffff;fill-opacity:1;fill-rule:nonzero;stroke:none" id="path58"/></g><g id="g60" transform="translate(265.229,404.04)"><path d="m 0,0 c 1.52,1.128 2.561,2.203 3.276,3.152 -3.831,0.835 -6.08,2.604 -6.111,3.741 -0.036,1.173 2.358,3.309 6.918,4.278 1.278,0.269 2.637,0.427 4.016,0.461 6.869,0.163 11.148,-2.628 11.183,-4.202 0.039,-1.12 -2.15,-3.124 -6.348,-4.151 -0.135,-0.076 -0.262,-0.16 -0.403,-0.238 0.292,-1.13 0.781,-2.344 1.651,-3.492 5.427,1.387 9.184,4.475 9.083,7.98 -0.133,4.635 -6.968,8.227 -15.272,8.03 C 6.322,15.512 4.722,15.316 3.24,15.006 -2.711,13.748 -6.924,10.5 -6.814,6.793 -6.728,3.896 -4.044,1.418 0,0" style="fill:#ffffff;fill-opacity:1;fill-rule:nonzero;stroke:none" id="path62"/></g><g id="g64" transform="translate(239.6514,388.9229)"><path d="m 0,0 c -1.301,-0.379 -2.688,-0.645 -4.112,-0.79 -7.461,-0.735 -12.806,2.256 -13.054,4.551 -0.2,1.854 2.667,4.755 7.646,6.214 1.293,0.379 2.732,0.658 4.141,0.801 4.2,0.423 7.728,-0.35 10.058,-1.51 1.834,0.191 4.049,0.456 6.389,0.843 -2.83,3.821 -9.502,6.094 -16.959,5.35 -1.756,-0.17 -3.427,-0.501 -4.986,-0.951 -6.881,-2.016 -11.555,-6.504 -11.045,-11.223 0.629,-5.775 8.846,-9.693 18.337,-8.758 1.74,0.171 3.406,0.5 4.976,0.961 3.785,1.098 6.899,2.959 8.851,5.192 C 7.917,1.012 5.419,1.17 3.033,1.176 2.135,0.723 1.117,0.324 0,0" style="fill:#ffffff;fill-opacity:1;fill-rule:nonzero;stroke:none" id="path66"/></g><g id="g68" transform="translate(306.2451,472.2695)"><path d="M 0,0 C -0.353,-0.206 -0.708,-0.41 -1.074,-0.607 -1.646,-0.942 -2.218,-1.274 -2.793,-1.59 -3.259,-1.853 -3.752,-2.096 -4.234,-2.338 -4.707,-2.595 -5.18,-2.847 -5.679,-3.095 -6.23,-3.37 -6.789,-3.631 -7.37,-3.901 c -0.228,-0.117 -0.448,-0.227 -0.684,-0.333 -0.185,-0.079 -0.37,-0.175 -0.555,-0.267 -0.637,-0.285 -1.271,-0.557 -1.917,-0.836 -0.367,-0.152 -0.732,-0.314 -1.096,-0.468 -0.703,-0.288 -1.414,-0.562 -2.123,-0.837 -0.312,-0.123 -0.638,-0.253 -0.966,-0.371 -0.548,-0.211 -1.124,-0.407 -1.692,-0.603 -0.21,-0.074 -0.42,-0.147 -0.608,-0.224 -0.271,-0.092 -0.552,-0.194 -0.824,-0.287 -0.83,-0.277 -1.669,-0.536 -2.513,-0.791 -0.219,-0.071 -0.458,-0.144 -0.691,-0.212 -0.886,-0.268 -1.788,-0.514 -2.681,-0.759 -0.193,-0.044 -0.373,-0.096 -0.568,-0.148 -0.941,-0.243 -1.9,-0.476 -2.855,-0.697 -0.149,-0.035 -0.301,-0.067 -0.449,-0.103 -1.008,-0.222 -2.005,-0.432 -3.025,-0.631 -0.11,-0.021 -0.221,-0.042 -0.332,-0.056 -1.043,-0.203 -2.104,-0.389 -3.156,-0.557 -0.08,-0.013 -0.17,-0.027 -0.251,-0.04 -1.092,-0.168 -2.194,-0.321 -3.296,-0.454 -0.047,-0.013 -0.108,-0.013 -0.153,-0.022 -1.139,-0.138 -2.279,-0.257 -3.424,-0.357 -0.025,0 -0.053,-0.011 -0.082,-0.011 -1.17,-0.104 -2.342,-0.181 -3.526,-0.256 h -0.025 c -1.19,-0.059 -2.395,-0.107 -3.609,-0.134 -0.754,-0.015 -1.528,-0.034 -2.294,-0.034 -2.586,0 -5.158,0.093 -7.714,0.274 -0.152,0.013 -0.309,0.032 -0.458,0.041 -0.995,0.074 -1.986,0.167 -2.975,0.272 -0.387,0.038 -0.76,0.084 -1.151,0.129 -0.788,0.09 -1.572,0.198 -2.359,0.303 -0.37,0.049 -0.732,0.098 -1.099,0.151 -1.091,0.159 -2.186,0.343 -3.275,0.537 -0.07,0.018 -0.149,0.036 -0.234,0.043 -1.03,0.193 -2.05,0.402 -3.064,0.627 -0.324,0.068 -0.656,0.149 -0.994,0.222 -0.794,0.18 -1.577,0.37 -2.362,0.564 -0.313,0.079 -0.635,0.159 -0.954,0.241 -0.785,0.208 -1.564,0.428 -2.342,0.651 11.879,12.558 28.68,20.418 47.294,20.418 2.093,0 4.16,-0.109 6.201,-0.303 3.407,-5.058 6.438,-10.548 9.001,-16.425 0.241,0.081 0.502,0.166 0.724,0.261 0.507,0.183 0.986,0.377 1.48,0.57 1.1,0.417 2.198,0.851 3.282,1.292 0.564,0.24 1.131,0.487 1.689,0.73 0.401,0.169 0.791,0.344 1.179,0.516 -1.617,3.731 -3.42,7.315 -5.372,10.755 C -8.491,6.797 -3.043,4.338 1.953,1.215 1.306,0.807 0.66,0.397 0,0 m 32.209,-16.425 c -0.105,0.181 -0.206,0.362 -0.312,0.542 -0.421,0.711 -0.859,1.408 -1.305,2.104 -0.285,0.45 -0.568,0.902 -0.863,1.346 -0.215,0.32 -0.437,0.628 -0.655,0.944 -3.32,4.825 -7.17,9.255 -11.502,13.173 -2.256,2.034 -4.646,3.933 -7.148,5.686 -9.412,6.633 -20.416,11.138 -32.324,12.838 -3.453,0.489 -6.972,0.753 -10.552,0.753 -0.551,0 -1.09,-0.008 -1.634,-0.02 -22.328,-0.48 -42.263,-10.808 -55.641,-26.809 -0.145,-0.174 -0.277,-0.361 -0.42,-0.537 -0.816,-0.991 -1.607,-2.001 -2.371,-3.03 -0.065,-0.087 -0.128,-0.178 -0.191,-0.266 -9.143,-12.408 -14.555,-27.734 -14.555,-44.329 0,-30.614 18.377,-56.922 44.709,-68.5 -0.841,1.306 -1.508,2.713 -1.98,4.217 -0.78,2.552 -0.942,5.25 -0.518,7.923 -19.422,11.286 -32.526,32.313 -32.526,56.36 0,13.809 4.333,26.617 11.696,37.163 0.638,-0.207 1.276,-0.415 1.923,-0.61 0.2,-0.062 0.4,-0.124 0.596,-0.185 0.847,-0.255 1.699,-0.507 2.577,-0.74 0.021,-0.01 0.032,-0.013 0.065,-0.019 5.927,-1.631 12.132,-2.793 18.534,-3.423 -4.741,-13.142 -6.576,-28.109 -5.052,-43.612 2.789,1.279 5.707,2.415 8.748,3.386 -1.066,14.27 0.971,27.914 5.662,39.681 0.688,-0.004 1.381,-0.015 2.065,-0.015 13.326,0 25.983,2.267 37.449,6.33 2.873,1.013 5.654,2.157 8.378,3.401 5.198,2.37 10.077,5.137 14.598,8.245 14.057,-11.952 23.001,-29.749 23.001,-49.602 0,-30.006 -20.405,-55.345 -48.068,-62.847 -0.148,-0.311 -0.298,-0.632 -0.466,-0.929 -2.414,-4.49 -6.426,-8.259 -11.386,-10.851 38.889,2.666 69.615,35.053 69.615,74.627 0,13.714 -3.706,26.554 -10.147,37.605" style="fill:#ffffff;fill-opacity:1;fill-rule:nonzero;stroke:none" id="path70"/></g><g id="g72" transform="translate(244.1143,307.2744)"><path d="m 0,0 c 0.641,0.742 0.961,1.725 0.961,2.947 0,1.223 -0.342,2.212 -1.026,2.969 -0.685,0.757 -1.572,1.136 -2.664,1.136 h -2.074 v -8.166 h 2.292 c 1.033,0 1.87,0.371 2.511,1.114 M 1.67,9.683 C 2.915,9.05 3.879,8.154 4.563,6.997 5.248,5.84 5.589,4.505 5.589,2.991 5.589,1.477 5.24,0.138 4.542,-1.026 3.843,-2.191 2.86,-3.09 1.594,-3.723 0.328,-4.356 -1.135,-4.673 -2.794,-4.673 h -6.551 v 15.306 h 6.703 c 1.63,0 3.068,-0.317 4.312,-0.95" style="fill:#ffffff;fill-opacity:1;fill-rule:nonzero;stroke:none" id="path74"/></g><g id="g76" transform="translate(255.2715,310.2217)"><path d="M 0,0 H 2.598 C 3.282,0 3.81,0.182 4.181,0.546 4.552,0.909 4.738,1.434 4.738,2.117 4.738,2.787 4.552,3.3 4.181,3.657 3.81,4.014 3.282,4.191 2.598,4.191 H 0 Z m 4.432,-7.62 -2.03,4.127 H 0 V -7.62 H -4.542 V 7.686 h 7.14 C 4.65,7.686 6.241,7.212 7.369,6.266 8.497,5.319 9.061,3.98 9.061,2.249 9.061,1.128 8.839,0.156 8.395,-0.666 7.951,-1.488 7.314,-2.14 6.484,-2.62 l 3.101,-5 z" style="fill:#ffffff;fill-opacity:1;fill-rule:nonzero;stroke:none" id="path78"/></g><g id="g80" transform="translate(271.5479,313.8682)"><path d="m 0,0 c -0.575,-0.364 -1.034,-0.863 -1.375,-1.496 -0.343,-0.633 -0.514,-1.336 -0.514,-2.107 0,-0.772 0.171,-1.477 0.514,-2.118 0.341,-0.64 0.8,-1.146 1.375,-1.517 0.575,-0.371 1.197,-0.557 1.867,-0.557 0.654,0 1.262,0.186 1.823,0.557 0.56,0.371 1,0.873 1.321,1.507 0.32,0.632 0.48,1.342 0.48,2.128 0,0.771 -0.16,1.474 -0.48,2.107 C 4.69,-0.863 4.254,-0.364 3.701,0 3.147,0.363 2.536,0.545 1.867,0.545 1.197,0.545 0.575,0.363 0,0 M 6.07,3.297 C 7.343,2.612 8.34,1.67 9.061,0.469 c 0.72,-1.2 1.081,-2.551 1.081,-4.05 0,-1.514 -0.361,-2.879 -1.081,-4.094 -0.721,-1.216 -1.718,-2.169 -2.991,-2.86 -1.274,-0.692 -2.697,-1.037 -4.269,-1.037 -1.587,0 -3.013,0.345 -4.279,1.037 -1.267,0.691 -2.26,1.644 -2.98,2.86 -0.721,1.215 -1.081,2.58 -1.081,4.094 0,1.499 0.36,2.85 1.081,4.05 0.72,1.201 1.713,2.143 2.98,2.828 1.266,0.683 2.692,1.025 4.279,1.025 1.572,0 2.995,-0.342 4.269,-1.025" style="fill:#ffffff;fill-opacity:1;fill-rule:nonzero;stroke:none" id="path82"/></g><g id="g84" transform="translate(293.0864,317.9072)"><path d="M 0,0 H 4.148 V -15.306 H 0.284 l -6.485,8.515 v -8.515 h -4.17 V 0 h 3.887 L 0,-8.537 Z" style="fill:#ffffff;fill-opacity:1;fill-rule:nonzero;stroke:none" id="path86"/></g><g id="g88" transform="translate(299.1343,317.9072)"><path d="M 0,0 H 12.511 V -3.494 H 4.542 v -2.402 h 7.227 V -9.389 H 4.542 v -2.424 h 8.187 v -3.493 l -12.729,0 z" style="fill:#ffffff;fill-opacity:1;fill-rule:nonzero;stroke:none" id="path90"/></g><g id="g92" transform="translate(236.9951,292.3096)"><path d="m 0,0 c -0.976,0.335 -1.776,0.502 -2.402,0.502 -0.393,0 -0.702,-0.076 -0.928,-0.23 -0.226,-0.152 -0.338,-0.375 -0.338,-0.666 0,-0.407 0.218,-0.723 0.655,-0.949 0.436,-0.225 1.128,-0.47 2.074,-0.731 1.077,-0.306 1.965,-0.615 2.664,-0.928 0.698,-0.313 1.306,-0.79 1.823,-1.431 0.516,-0.64 0.775,-1.484 0.775,-2.532 0,-1.062 -0.281,-1.962 -0.841,-2.696 -0.56,-0.735 -1.317,-1.285 -2.271,-1.649 -0.953,-0.364 -2.019,-0.545 -3.198,-0.545 -1.31,0 -2.624,0.221 -3.941,0.666 -1.318,0.443 -2.456,1.05 -3.417,1.822 l 1.703,3.45 c 0.771,-0.67 1.714,-1.233 2.828,-1.692 1.113,-0.458 2.07,-0.688 2.871,-0.688 0.494,0 0.88,0.095 1.157,0.284 0.276,0.189 0.415,0.458 0.415,0.808 0,0.422 -0.226,0.746 -0.677,0.972 -0.452,0.225 -1.15,0.462 -2.096,0.709 -1.063,0.276 -1.943,0.564 -2.642,0.863 -0.699,0.298 -1.303,0.76 -1.812,1.386 -0.51,0.626 -0.764,1.448 -0.764,2.467 0,0.99 0.261,1.852 0.786,2.587 0.524,0.736 1.262,1.299 2.216,1.693 0.953,0.392 2.063,0.589 3.329,0.589 1.15,0 2.293,-0.164 3.428,-0.492 1.136,-0.327 2.125,-0.76 2.97,-1.298 L 2.686,-1.223 C 1.87,-0.742 0.975,-0.335 0,0" style="fill:#ffffff;fill-opacity:1;fill-rule:nonzero;stroke:none" id="path94"/></g><g id="g96" transform="translate(247.9663,291.9824)"><path d="m 0,0 c -0.575,-0.364 -1.034,-0.863 -1.375,-1.496 -0.343,-0.633 -0.514,-1.336 -0.514,-2.107 0,-0.772 0.171,-1.477 0.514,-2.118 0.341,-0.64 0.8,-1.146 1.375,-1.517 0.575,-0.371 1.197,-0.557 1.867,-0.557 0.654,0 1.262,0.186 1.823,0.557 0.56,0.371 1,0.873 1.321,1.507 0.32,0.632 0.48,1.342 0.48,2.128 0,0.771 -0.16,1.474 -0.48,2.107 C 4.69,-0.863 4.254,-0.364 3.701,0 3.147,0.363 2.536,0.545 1.867,0.545 1.197,0.545 0.575,0.363 0,0 M 6.07,3.297 C 7.343,2.612 8.34,1.67 9.061,0.469 c 0.72,-1.2 1.081,-2.551 1.081,-4.05 0,-1.514 -0.361,-2.879 -1.081,-4.094 -0.721,-1.216 -1.718,-2.169 -2.991,-2.86 -1.274,-0.692 -2.697,-1.037 -4.269,-1.037 -1.587,0 -3.013,0.345 -4.279,1.037 -1.267,0.691 -2.26,1.644 -2.98,2.86 -0.721,1.215 -1.081,2.58 -1.081,4.094 0,1.499 0.36,2.85 1.081,4.05 0.72,1.201 1.713,2.143 2.98,2.828 1.266,0.683 2.692,1.025 4.279,1.025 1.572,0 2.995,-0.342 4.269,-1.025" style="fill:#ffffff;fill-opacity:1;fill-rule:nonzero;stroke:none" id="path98"/></g><g id="g100" transform="translate(268.9263,291.9707)"><path d="m 0,0 c -0.663,0.371 -1.307,0.557 -1.933,0.557 -0.684,0 -1.302,-0.174 -1.855,-0.524 -0.554,-0.349 -0.99,-0.834 -1.31,-1.452 -0.32,-0.619 -0.481,-1.313 -0.481,-2.085 0,-0.771 0.161,-1.467 0.481,-2.085 0.32,-0.619 0.756,-1.106 1.31,-1.463 0.553,-0.357 1.171,-0.535 1.855,-0.535 0.582,0 1.205,0.16 1.868,0.481 0.662,0.32 1.255,0.756 1.779,1.309 l 2.62,-2.794 c -0.83,-0.903 -1.831,-1.624 -3.002,-2.162 -1.172,-0.538 -2.333,-0.808 -3.483,-0.808 -1.528,0 -2.908,0.346 -4.137,1.038 -1.231,0.691 -2.194,1.648 -2.893,2.871 -0.699,1.222 -1.048,2.59 -1.048,4.104 0,1.485 0.356,2.828 1.07,4.028 0.713,1.202 1.695,2.144 2.947,2.829 1.252,0.683 2.656,1.025 4.214,1.025 1.15,0 2.3,-0.247 3.45,-0.742 1.15,-0.495 2.11,-1.157 2.882,-1.987 L 1.714,-1.518 C 1.233,-0.877 0.662,-0.371 0,0" style="fill:#ffffff;fill-opacity:1;fill-rule:nonzero;stroke:none" id="path102"/></g><g id="g104" transform="translate(283.3145,291.9707)"><path d="m 0,0 c -0.663,0.371 -1.307,0.557 -1.933,0.557 -0.684,0 -1.302,-0.174 -1.855,-0.524 -0.554,-0.349 -0.99,-0.834 -1.31,-1.452 -0.32,-0.619 -0.481,-1.313 -0.481,-2.085 0,-0.771 0.161,-1.467 0.481,-2.085 0.32,-0.619 0.756,-1.106 1.31,-1.463 0.553,-0.357 1.171,-0.535 1.855,-0.535 0.582,0 1.205,0.16 1.868,0.481 0.662,0.32 1.255,0.756 1.779,1.309 l 2.62,-2.794 c -0.83,-0.903 -1.831,-1.624 -3.002,-2.162 -1.172,-0.538 -2.333,-0.808 -3.483,-0.808 -1.528,0 -2.908,0.346 -4.137,1.038 -1.231,0.691 -2.194,1.648 -2.893,2.871 -0.699,1.222 -1.048,2.59 -1.048,4.104 0,1.485 0.356,2.828 1.07,4.028 0.713,1.202 1.695,2.144 2.947,2.829 1.252,0.683 2.656,1.025 4.214,1.025 1.15,0 2.3,-0.247 3.45,-0.742 1.15,-0.495 2.11,-1.157 2.882,-1.987 L 1.714,-1.518 C 1.233,-0.877 0.662,-0.371 0,0" style="fill:#ffffff;fill-opacity:1;fill-rule:nonzero;stroke:none" id="path106"/></g><g id="g108" transform="translate(288.3467,296.0215)"><path d="M 0,0 H 12.511 V -3.494 H 4.542 v -2.402 h 7.227 V -9.389 H 4.542 v -2.424 h 8.187 v -3.493 l -12.729,0 z" style="fill:#ffffff;fill-opacity:1;fill-rule:nonzero;stroke:none" id="path110"/></g><g id="g112" transform="translate(307.1235,288.3359)"><path d="M 0,0 H 2.598 C 3.282,0 3.81,0.182 4.181,0.546 4.552,0.909 4.738,1.434 4.738,2.117 4.738,2.787 4.552,3.3 4.181,3.657 3.81,4.014 3.282,4.191 2.598,4.191 H 0 Z m 4.432,-7.62 -2.03,4.127 H 0 V -7.62 H -4.542 V 7.686 h 7.14 C 4.65,7.686 6.241,7.212 7.369,6.266 8.497,5.319 9.061,3.98 9.061,2.249 9.061,1.128 8.839,0.156 8.395,-0.666 7.951,-1.488 7.314,-2.14 6.484,-2.62 l 3.101,-5 z" style="fill:#ffffff;fill-opacity:1;fill-rule:nonzero;stroke:none" id="path114"/></g><g id="g116" transform="translate(293.7158,453.5703)"><path d="m 0,0 c 4.192,-14.436 5.119,-28.864 3.199,-42.078 2.976,-0.776 5.865,-1.696 8.638,-2.763 2.452,15.124 1.498,31.703 -3.436,48.216 C 5.653,2.181 2.855,1.046 0,0" style="fill:#ffffff;fill-opacity:1;fill-rule:nonzero;stroke:none" id="path118"/></g><g id="g120" transform="translate(301.3066,454.6748)"><path d="m 0,0 c 0.745,4.216 4.748,13.396 10.303,20.285 4.404,5.463 8.369,9.33 19.65,14.807 11.281,5.476 16.433,16.329 18.567,21.648 2.132,5.321 8.867,28.684 12.472,35.075 3.606,6.392 8.561,19.788 40.37,27.801 31.81,8.015 59.806,12.532 69.386,15.584 9.582,3.053 14.807,6.863 18.49,4.147 3.684,-2.716 3.256,-12.662 0.506,-19.86 -2.75,-7.197 -7.328,-14.244 -7.328,-14.244 0,0 1.823,-16.859 -3.584,-25.572 -5.408,-8.712 -6.473,-11.104 -16.728,-18.84 0.559,-4.621 1.729,-20.164 -18.415,-32.498 0.057,-5.636 -9.36,-26.456 -38.064,-32.829 -28.703,-6.373 -55.042,-6.254 -55.042,-6.254 0,0 0.95,-19.813 -14.14,-25.582 C 21.354,-42.101 7.152,-36.299 1.916,-24.167 -3.318,-12.035 0,0 0,0" style="fill:#05346d;fill-opacity:1;fill-rule:nonzero;stroke:none" id="path122"/></g><g id="g124" transform="translate(325.7246,423.209)"><path d="m 0,0 c -10.438,0 -16.89,5.948 -18.656,17.204 l -0.03,0.185 v 0.172 c -0.007,0.071 -0.012,0.14 -0.015,0.208 l -0.133,0.081 v 1.441 c -0.057,1.301 0.008,2.449 0.071,3.56 0.033,0.564 0.064,1.128 0.077,1.712 v 0.292 l 0.035,0.2 c 1.916,11.274 6.585,19.65 14.692,26.36 2.77,2.292 5.799,3.794 8.729,5.246 1.322,0.656 2.689,1.334 4.011,2.075 10.621,5.956 18.242,16.091 23.981,31.897 1.205,3.318 2.31,6.865 3.48,10.62 3.6,11.549 7.322,23.49 14.604,30.928 3.685,3.765 8.666,5.984 13.045,7.767 7.951,3.24 17.681,6.042 30.625,8.823 6.431,1.381 13.074,2.71 19.496,3.997 14.904,2.983 30.314,6.067 43.883,9.967 l 3.929,1.13 -0.931,-3.981 c -4.657,-19.927 -20.434,-28.83 -31.899,-33.794 -6.148,-2.662 -12.806,-4.764 -19.246,-6.795 -5.223,-1.649 -10.623,-3.354 -15.619,-5.324 -1.719,-0.677 -3.402,-1.359 -4.973,-2.096 1.364,-0.186 2.805,-0.302 4.317,-0.352 l 0.228,0.002 0.156,-0.02 c 0.803,-0.106 1.87,-0.163 3.004,-0.163 1.135,0 9.725,0.774 9.725,0.774 0,0 0.105,-0.001 0.107,-0.001 0.666,0 6.662,1.179 6.662,1.179 5.922,1.195 11.852,2.973 17.627,5.283 4.795,1.918 9.133,4.383 13.331,6.768 l 1.863,1.056 4.449,2.508 -0.91,-5.025 c -1.486,-8.224 -6.387,-15.186 -14.977,-21.283 -5.949,-4.222 -13.789,-8.046 -23.302,-11.367 -6.696,-2.336 -13.87,-4.166 -20.807,-5.935 -7.897,-2.014 -15.994,-4.078 -23.301,-6.895 0.457,-0.061 0.897,-0.153 1.316,-0.273 1.092,-0.246 2.481,-0.366 4.245,-0.366 h 0.56 l 0.104,-0.008 c 1.312,-0.113 2.941,-0.176 4.586,-0.176 1.644,0 3.271,0.063 4.584,0.176 l 0.103,0.008 h 0.115 c 0.147,0.013 0.303,0.02 0.461,0.02 0.213,0 0.44,-0.012 0.666,-0.026 h 0.006 l 0.182,0.153 h 0.877 c 0.131,0.015 0.267,0.021 0.412,0.021 0.021,0 0.045,0 0.068,-0.001 l 0.096,0.128 h 1.348 c 1.668,0.048 3.341,0.269 5.05,0.673 l 0.274,0.064 h 0.297 c 1.388,0.15 3.138,0.377 4.644,0.797 l 0.317,0.088 h 0.287 c 10.779,1.714 20.594,5.072 27.951,7.81 l 4.256,1.584 -1.09,-4.407 C 126.621,74.865 117.871,70.184 111.482,66.766 105.256,63.434 97.613,60.515 87.426,57.581 81.531,55.884 75.351,54.488 69.373,53.139 60.27,51.084 51.557,49.116 43.785,46.188 c 1.248,-0.179 2.533,-0.317 3.85,-0.414 l 2.459,-0.259 c 0.396,-0.033 0.777,-0.06 1.164,-0.06 0.174,0 3.232,-0.16 4.471,-0.16 1.24,0 4.469,0.181 4.469,0.181 1.07,0 3.991,0.298 3.991,0.298 0.128,0.013 0.26,0.02 0.397,0.02 0.115,0 2.439,0.269 2.512,0.269 l 0.129,0.005 c 1.197,0.037 3.613,0.444 3.613,0.444 0.555,0.005 3.125,0.44 3.125,0.44 0.685,0.046 1.492,0.111 2.012,0.271 0.033,0.01 0.894,0.173 0.894,0.173 8.082,1.098 16.096,2.942 24.49,5.634 l 8.332,2.673 -5.804,-6.548 C 93.279,37.185 73.256,34.493 53.893,31.891 L 50.377,31.416 C 46.803,30.929 42.92,30.481 39.164,30.049 32.61,29.293 25.834,28.513 19.963,27.451 11.46,25.914 6.203,23.056 3.803,18.586 c 0.726,0.263 1.501,0.519 2.32,0.727 1.879,0.473 4.382,1.018 7.086,1.018 0.561,0 1.12,-0.023 1.664,-0.069 l 2.098,-0.177 0.097,-2.103 C 17.693,4.535 9.834,0.864 3.131,0.153 L 3.006,0.141 H 2.847 C 1.871,0.047 0.914,0 0,0" style="fill:#ffffff;fill-opacity:1;fill-rule:evenodd;stroke:none" id="path126"/></g><g id="g128" transform="translate(211.8765,475.2373)"><path d="m 0,0 c -8.891,8.964 -14.326,19.968 -16.61,33.635 l 10e-4,0.087 -0.018,0.158 c -1.146,10.003 -10.474,15.522 -17.285,19.553 l -0.318,0.188 c -7.172,4.245 -15.117,8.003 -22.801,11.639 -12.305,5.819 -25.027,11.838 -34.424,19.844 l -3.174,2.705 -0.762,-4.101 c -2.5,-13.442 2.876,-25.209 16.433,-35.972 2.57,-2.04 5.223,-3.931 7.788,-5.76 3.677,-2.622 7.152,-5.1 10.402,-7.977 0.421,-0.373 0.86,-0.734 1.303,-1.097 -9.057,0.67 -16.43,5.035 -23.063,9.714 l -0.042,0.039 c -0.334,0.324 -5.812,5.158 -5.812,5.158 l 0.84,-6.936 c 2.703,-14.757 13.299,-21.995 23.546,-28.995 3.612,-2.468 7.347,-5.02 10.564,-7.829 0.321,-0.281 0.652,-0.604 0.995,-0.949 -0.911,0.068 -1.507,0.175 -1.877,0.268 l -0.266,0.066 -0.314,0.005 c -6.494,0.718 -12.283,3.822 -17.204,6.677 -0.152,0.088 -0.306,0.188 -0.457,0.284 -0.725,0.462 -6.389,3.867 -6.389,3.867 l 1.253,-5.959 c 1.769,-6.343 3.594,-11.959 8.045,-16.456 2.933,-2.962 7.062,-4.548 11.054,-6.083 2.207,-0.846 4.291,-1.646 6.111,-2.641 2.545,-1.392 4.914,-3.063 6.851,-4.835 0.626,-0.574 1.284,-1.176 1.889,-1.822 -2.447,0.574 -4.901,1.131 -7.307,1.678 -3.998,0.91 -8.134,1.852 -12.12,2.838 l -3.044,0.755 0.051,-3.135 c 0.182,-11.43 10.201,-14.299 18.249,-16.604 1.983,-0.568 3.856,-1.105 5.583,-1.737 6.745,-2.474 12.808,-5.642 18.538,-9.686 l 3.166,-2.234 0.608,3.827 c 2.822,17.76 9.402,32.327 20.118,44.533 l 1.485,1.691 z" style="fill:#ffffff;fill-opacity:1;fill-rule:evenodd;stroke:none" id="path130"/></g><g id="g132" transform="translate(272.1069,542.8174)"><path d="m 0,0 c 0.769,0 1.52,-0.111 2.229,-0.331 1.742,-0.523 3.334,-1.468 4.597,-2.691 0.451,0.076 0.896,0.123 1.335,0.143 C 6.592,-2.278 5.269,-1.186 4.399,0.283 3.954,1.041 3.657,1.86 3.508,2.701 1.786,3.043 -0.993,3.399 -5.021,3.484 -3.334,2.721 -1.901,1.487 -0.894,-0.054 -0.592,-0.018 -0.294,0 0,0 m 11.939,-3.484 c 0.035,0.044 0.07,0.087 0.104,0.13 -0.12,-0.013 -0.241,-0.024 -0.363,-0.032 0.088,-0.032 0.174,-0.064 0.259,-0.098 m 27.028,-49.93 c -3.869,0 -7.264,2.116 -8.862,5.522 -1.93,4.113 -0.808,8.424 0.847,11.953 -1.09,0.073 -2.171,0.373 -3.5,0.96 -0.951,-0.371 -2.011,-0.563 -3.148,-0.563 -0.878,0 -1.915,0.097 -3.363,0.317 -2.545,0.387 -4.822,1.363 -6.705,2.829 -0.126,-0.171 -0.265,-0.341 -0.414,-0.511 -1.361,-1.527 -3.311,-2.396 -5.359,-2.396 -2.377,0 -4.271,1.126 -5.811,2.228 -1.848,1.321 -3.124,3.193 -3.653,5.334 -1.313,-1.345 -1.882,-2.009 -2.122,-2.315 -1.294,-3.37 -3.954,-5.361 -7.214,-5.361 -1.574,0 -2.869,0.489 -3.861,1.071 -1.149,-0.694 -2.522,-1.071 -4.06,-1.071 -0.856,0 -1.771,0.127 -2.799,0.387 -1.704,0.428 -3.208,1.33 -4.361,2.595 -1.704,-0.723 -3.386,-1.204 -4.889,-1.381 -0.438,-0.05 -0.861,-0.076 -1.275,-0.076 -1.868,0 -3.646,0.512 -5.164,1.452 -6.14,-5.803 -11.705,-14.562 -11.765,-14.658 l -2.367,-3.765 -4.231,0.609 c -0.107,0.005 -0.281,0.008 -0.531,0.008 -0.389,0 -0.896,-0.01 -1.536,-0.043 l -0.427,-0.029 -0.468,0.036 c -5.762,0.397 -8.285,3.698 -9.273,5.631 -3.381,6.616 0.975,14.57 7.024,24.278 2.567,4.128 8.881,11.91 14.764,18.826 -6.675,-1.769 -13.305,-4.074 -18.22,-6.109 3.227,-2.017 4.102,-5.425 3.485,-8.081 -1.559,-6.773 -10.598,-7.3 -13.331,-7.3 -10.055,0 -16.811,6.099 -16.811,15.178 0,18.873 24.369,24.435 56.228,29.747 6.315,1.055 12.558,1.591 18.553,1.591 17.415,0 31.91,-4.643 36.069,-11.553 0.524,-0.867 0.895,-1.783 1.113,-2.716 0.056,0.165 0.108,0.327 0.159,0.485 0.268,0.84 0.603,1.895 1.391,2.976 1.437,2.005 3.711,3.167 6.223,3.167 6.116,0 10.136,-6.942 10.879,-8.335 0.549,-1.033 0.834,-2.053 0.911,-3.05 1.141,0.475 2.392,0.735 3.7,0.735 3.829,0 7.133,-2.197 8.704,-5.427 2.62,-0.408 5.052,-1.952 7.246,-4.605 0.107,-0.129 0.208,-0.259 0.304,-0.392 1.716,-0.112 3.327,-0.73 4.666,-1.773 4.546,4.577 8.881,6.893 12.923,6.893 0.281,0 0.559,-0.014 0.83,-0.035 5.174,-0.384 9.356,-3.355 10.891,-7.753 1.557,-4.436 0.159,-9.543 -3.567,-13.005 -0.454,-0.425 -0.938,-0.825 -1.443,-1.199 -0.493,-2.158 -1.765,-3.936 -2.554,-5.041 -2.388,-3.325 -8.14,-8.928 -14.621,-8.928 -0.903,0 -1.798,0.11 -2.661,0.328 -1.372,0.349 -2.653,0.911 -3.801,1.653 -1.002,-1.22 -2.124,-2.687 -3.225,-4.127 -2.047,-2.674 -4.336,-5.664 -6.771,-8.337 -4.024,-4.419 -8.551,-6.854 -12.747,-6.854" style="fill:#05346d;fill-opacity:1;fill-rule:nonzero;stroke:none" id="path134"/></g><g id="g136" transform="translate(342.8169,520.5469)"><path d="M 0,0 C 0.154,0.22 0.316,0.454 0.48,0.68 0.582,0.665 0.685,0.654 0.784,0.641 0.498,0.391 0.238,0.179 0,0 m -46.06,-1.659 c -0.266,0.469 -0.577,0.908 -0.88,1.314 0.815,0.225 1.748,0.493 2.722,0.838 -0.322,-1.014 -0.573,-2.103 -0.669,-3.191 -0.018,0.015 -0.038,0.033 -0.058,0.05 -0.341,0.286 -0.983,0.808 -1.115,0.989 m -47.139,22.312 c 0.315,0.259 0.631,0.512 0.947,0.768 -0.113,-0.252 -0.207,-0.514 -0.283,-0.782 -0.122,0.012 -0.24,0.027 -0.367,0.027 -0.093,0 -0.192,-0.005 -0.297,-0.013 M -107.862,2.836 c -0.249,-1.065 -0.38,-2.016 -0.423,-2.871 h -1.547 c -0.831,0 -2.557,-0.694 -4.578,-1.7 3.571,4.886 8.175,10.224 13.342,15.288 -2.961,-3.494 -6.097,-7.735 -6.794,-10.717 M 15.944,13.075 c -1.028,2.948 -3.838,4.863 -7.501,5.135 -0.17,0.013 -0.342,0.022 -0.517,0.022 -4.866,0 -10.142,-5.383 -13.355,-9.332 -0.21,0.844 -0.544,1.641 -1.051,2.314 -0.921,1.24 -2.251,1.916 -3.744,1.916 -0.626,0 -1.271,-0.121 -1.913,-0.366 -0.023,0.769 -0.292,1.487 -0.852,2.162 -0.674,0.816 -2.726,3.293 -5.65,3.293 -0.439,0 -0.959,-0.06 -1.523,-0.235 -0.116,3.081 -2.649,5.553 -5.755,5.553 -3.182,0 -5.769,-2.588 -5.769,-5.769 0,-0.178 0.01,-0.354 0.026,-0.529 -0.289,-0.105 -0.569,-0.232 -0.827,-0.402 -0.588,-0.381 -1.683,-1.578 -2.933,-3.075 -0.248,0.865 -0.612,1.527 -0.927,1.98 -0.683,0.975 -1.594,1.713 -2.645,2.158 4.587,4.533 6.404,7.394 5.005,10.025 -0.034,0.064 -3.372,6.262 -7.42,6.262 -1.231,0 -2.346,-0.57 -3.053,-1.553 -0.409,-0.563 -0.603,-1.164 -0.826,-1.864 -0.372,-1.151 -0.931,-2.884 -2.59,-4.822 -2.006,-2.356 -6.687,-8.11 -10.269,-12.706 -0.107,0.213 -0.222,0.408 -0.34,0.571 -0.456,0.625 -1.533,1.667 -3.582,1.667 -1.088,0 -2.242,-0.288 -3.314,-0.725 -0.891,1.85 -2.734,2.98 -4.26,3.438 -0.341,0.106 -0.7,0.156 -1.069,0.156 -0.892,0 -1.978,-0.375 -3.252,-1.119 -0.163,3.038 -2.679,5.458 -5.755,5.458 -0.874,0 -1.701,-0.201 -2.446,-0.551 -1.018,1.609 -2.81,2.682 -4.854,2.682 -0.304,0 -0.603,-0.031 -0.894,-0.078 0.97,0.702 1.944,1.389 2.924,2.039 l 0.11,0.075 0.105,0.082 c 0.805,0.649 1.21,1.506 1.21,2.555 1.43,0.107 3.492,0.204 5.983,0.204 8.564,0 13.2,-1.126 14.521,-1.975 -0.488,-1.028 -0.444,-2.202 0.121,-3.168 0.654,-1.105 1.883,-1.769 3.293,-1.769 2.371,0 4.713,1.756 6.271,4.694 0.757,1.431 0.657,3.145 -0.28,4.696 -2.889,4.799 -15.049,9.654 -32.709,9.654 -5.746,0 -11.775,-0.514 -17.908,-1.538 -30.001,-5.002 -52.951,-10.079 -52.951,-25.879 0,-6.838 5.06,-11.256 12.889,-11.256 0.88,0 8.556,0.117 9.511,4.264 0.294,1.265 -0.121,3.111 -2.242,4.145 l -0.494,0.242 -0.549,0.039 c -2.772,0.214 -5.589,1.139 -6.5,1.873 3.939,3.465 24.34,11.136 38.974,13.247 -7.064,-7.9 -18.579,-21.529 -22.069,-27.14 -5.198,-8.344 -9.303,-15.641 -6.862,-20.422 0.748,-1.46 2.412,-3.253 6.09,-3.506 l 0.176,-0.013 0.172,0.012 c 0.743,0.039 1.328,0.05 1.775,0.05 0.608,0 0.905,-0.022 0.97,-0.031 l 1.827,-0.263 1.003,1.592 c 0.069,0.113 6.99,11.067 14.338,17.155 0.353,0.304 0.618,0.609 0.82,0.906 0.182,-0.334 0.377,-0.623 0.574,-0.87 1.092,-1.373 2.696,-2.134 4.526,-2.134 0.263,0 0.537,0.015 0.815,0.048 1.979,0.233 4.545,1.221 6.975,2.759 0.127,-0.647 0.344,-1.264 0.68,-1.831 0.676,-1.135 1.717,-1.907 3.017,-2.235 0.731,-0.185 1.317,-0.267 1.837,-0.267 1.496,0 3.261,0.621 3.707,3.377 0.206,-0.697 0.545,-1.3 1.025,-1.781 0.518,-0.521 1.594,-1.596 3.189,-1.596 0.995,0 2.779,0.421 3.688,3.225 0.594,1.058 3.421,3.979 8.402,8.69 0.006,-0.032 0.016,-0.061 0.019,-0.088 0.224,-1.02 0.897,-1.777 1.701,-2.296 -0.647,-1.465 -0.98,-2.917 -0.764,-4.337 0.217,-1.463 0.991,-2.701 2.226,-3.584 1.255,-0.899 2.335,-1.496 3.528,-1.496 0.946,0 1.807,0.384 2.423,1.075 1.018,1.149 0.869,2.554 0.782,3.336 0.342,0.419 0.95,1.086 1.805,1.966 1.141,-2.857 3.699,-5.68 8.057,-6.343 1.217,-0.186 2.097,-0.274 2.774,-0.274 1.702,0 2.615,0.668 3.113,1.343 0.447,-0.452 0.971,-0.824 1.568,-1.092 1.068,-0.475 1.796,-0.667 2.521,-0.667 0.972,0 3.243,0.373 3.47,3.826 0.041,0.653 0.077,1.16 0.498,1.743 0.271,0.368 0.718,0.922 1.255,1.571 -0.039,-1.77 0.273,-3.664 1.391,-5.174 0.398,-0.55 0.885,-1.003 1.431,-1.36 -1.656,-1.278 -3.032,-2.515 -3.573,-3.422 -1.835,-3.096 -4.074,-7.642 -2.322,-11.372 0.96,-2.046 2.946,-3.268 5.311,-3.268 3.077,0 6.577,1.98 9.848,5.573 2.282,2.505 4.442,5.321 6.529,8.046 2.168,2.834 4.22,5.518 5.81,6.987 0.131,0.118 0.248,0.231 0.368,0.336 1.054,-1.545 2.711,-2.825 4.949,-3.395 0.544,-0.138 1.114,-0.209 1.701,-0.209 4.551,0 9.325,4.355 11.425,7.281 0.869,1.214 2.267,3.167 1.999,5.012 0.873,0.481 1.725,1.079 2.525,1.826 2.581,2.4 3.576,5.874 2.533,8.841" style="fill:#ee2722;fill-opacity:1;fill-rule:nonzero;stroke:none" id="path138"/></g><g id="g140" transform="translate(204.4883,529.5049)"><path d="m 0,0 c 0,0 -9.454,0.728 -9.454,5.089 0,4.359 33.443,16.6 49.317,16.356 C 36.59,18.416 17.688,-3.271 13.087,-10.662 8.481,-18.053 1.331,-29.568 10.054,-30.173 c 2.425,0.13 3.275,0 3.275,0 0,0 7.149,11.39 14.903,17.818 2.544,2.177 -9.087,-3.76 -13.025,-7.032 4.663,10.055 19.562,28.356 36.532,39.618 0.605,0.492 -0.849,2.064 0,2.794 0.849,0.721 30.414,2.178 26.174,-5.453 -0.61,-1.093 2.299,-1.819 4.481,2.299 C 84.577,23.99 65.793,33.685 34.532,28.478 3.269,23.265 -15.998,18.177 -15.998,5.453 -15.998,-7.266 4.727,-2.3 0,0" style="fill:#ffffff;fill-opacity:1;fill-rule:nonzero;stroke:none" id="path142"/></g><g id="g144" transform="translate(249.2388,537.9883)"><path d="m 0,0 c 0,0 -10.331,-10.42 -11.463,-15.266 -1.139,-4.849 0.479,-7.272 3.225,-6.951 2.745,0.323 7.674,2.828 10.343,6.468 2.664,3.633 -2.833,-6.787 1.37,-7.84 4.202,-1.05 -0.429,2.506 5.148,9.227 5.576,6.729 6.307,7.394 4.542,8.727 -1.751,1.328 -2.604,1.328 -6.117,-1.454 -3.515,-2.787 -12.541,-11.449 -14.361,-11.871 -1.814,-0.429 0.852,3.269 2.795,5.567 1.934,2.304 10.841,9.881 8.659,11.394 C 1.956,-0.487 0.974,1.002 0,0" style="fill:#ffffff;fill-opacity:1;fill-rule:nonzero;stroke:none" id="path146"/></g><g id="g148" transform="translate(265.2319,531.1992)"><path d="M 0,0 C 0,0 5.492,5.251 7.109,4.769 8.726,4.284 10.985,2.502 9.129,0 7.273,-2.498 8.726,-1.856 10.907,0 c 2.183,1.861 7.028,3.313 5.897,-0.238 -1.134,-3.554 -5.338,-5.655 -3.837,-7.194 1.496,-1.528 -1.329,-0.725 -1.493,0 -0.161,0.728 -0.234,5.899 -2.983,3.322 -2.754,-2.594 -10.427,-9.703 -10.992,-11.563 -0.565,-1.856 -1.215,-1.45 -2.098,-0.563 -0.893,0.892 -0.65,4.912 3.228,9.689 3.88,4.772 6.386,7.441 4.363,7.032 C 0.973,0.084 0.408,-0.644 0,0" style="fill:#ffffff;fill-opacity:1;fill-rule:nonzero;stroke:none" id="path150"/></g><g id="g152" transform="translate(300.7012,551.4805)"><path d="m 0,0 c -0.49,-0.669 -0.727,-3.56 -3.559,-6.868 -2.821,-3.317 -10.579,-12.928 -13.488,-16.97 -2.907,-4.034 -8.321,-9.931 -4.931,-12.354 3.396,-2.423 1.779,0.406 2.179,1.456 0.412,1.048 4.528,5.152 9.375,9.526 4.847,4.365 10.017,8.323 9.372,5.577 -0.65,-2.75 -8.651,-7.268 -11.393,-8.642 -1.21,-0.812 -0.644,-7.888 5.817,-8.872 6.463,-0.984 1.213,1.275 0.159,3.132 -1.049,1.862 -3.79,3.963 -1.13,4.928 2.669,0.966 9.212,1.749 11.148,7.015 1.939,5.264 -1.692,7.627 -4.601,6.29 -2.908,-1.347 -6.626,-4.397 -5.896,-2.912 C -6.222,-17.209 6.945,-6.95 5.57,-4.367 4.197,-1.779 1.047,1.455 0,0" style="fill:#ffffff;fill-opacity:1;fill-rule:nonzero;stroke:none" id="path154"/></g><g id="g156" transform="translate(311.9038,534.958)"><path d="m 0,0 c -1.115,-0.721 -7.632,-9.209 -8.84,-11.026 -1.212,-1.817 -4.002,-8.407 -0.79,-9.836 3.21,-1.438 0.848,1.05 2.965,3.959 2.122,2.91 11.756,13.281 10.667,14.912 C 2.912,-0.364 1.033,0.666 0,0" style="fill:#ffffff;fill-opacity:1;fill-rule:nonzero;stroke:none" id="path158"/></g><g id="g160" transform="translate(258.6519,539.626)"><path d="m 0,0 c 0,-1.577 -1.272,-2.846 -2.852,-2.846 -1.569,0 -2.845,1.269 -2.845,2.846 0,1.57 1.276,2.843 2.845,2.843 C -1.272,2.843 0,1.57 0,0" style="fill:#ffffff;fill-opacity:1;fill-rule:nonzero;stroke:none" id="path162"/></g><g id="g164" transform="translate(265.9712,537.4697)"><path d="m 0,0 c 0,-1.589 -1.284,-2.876 -2.871,-2.876 -1.592,0 -2.873,1.287 -2.873,2.876 0,1.583 1.281,2.868 2.873,2.868 C -1.284,2.868 0,1.583 0,0" style="fill:#ffffff;fill-opacity:1;fill-rule:nonzero;stroke:none" id="path166"/></g><g id="g168" transform="translate(319.7729,538.3145)"><path d="m 0,0 c 0,-1.583 -1.288,-2.875 -2.873,-2.875 -1.584,0 -2.874,1.292 -2.874,2.875 0,1.586 1.29,2.874 2.874,2.874 C -1.288,2.874 0,1.586 0,0" style="fill:#ffffff;fill-opacity:1;fill-rule:nonzero;stroke:none" id="path170"/></g><g id="g172" transform="translate(312.085,499.6367)"><path d="M 0,0 C -2.539,0.663 -1.146,2.786 0.548,4.604 2.244,6.422 12.119,13.088 12.119,13.088 12.119,13.088 2.548,-0.666 0,0 m 39.146,33.208 c 1.181,0.104 2.356,-1.34 0.3,-3.581 -2.062,-2.246 -5.744,-4.065 -8.692,-3.944 -0.389,0.291 7.219,7.422 8.392,7.525 m 3.029,-5.945 c 3.45,3.205 2.541,8.54 -3.214,8.971 C 33.205,36.662 24.93,24.477 24.93,24.477 c 0,0 -0.046,-0.094 -0.115,-0.262 -0.084,-0.043 -0.208,-0.191 -0.398,-0.467 -1.513,-2.238 -3.873,-3.816 -5.271,-4.419 -1.388,-0.611 2.366,3.218 3.212,6.061 0.853,2.844 0,6.909 -3.03,5.449 C 16.303,29.384 10.666,22.66 7.7,20.054 4.728,17.45 3.578,16.903 3.578,18.477 c 0,1.577 13.687,13.391 11.939,15.517 -1.759,2.113 -3.702,3.257 -5.636,1.024 -1.307,-1.501 -8.299,-8.845 -9.575,-12.965 -1.269,-4.116 -1.04,-9.148 3.599,-8.241 4.64,0.912 10.09,7.456 11.545,9.03 1.456,1.576 1.034,-1.755 -0.298,-3.029 C 13.814,18.54 12.787,16.78 9.943,15.204 7.095,13.634 -0.542,8.483 -1.512,6.847 -2.483,5.21 -4.979,0.907 -3.699,-1.816 c 1.282,-2.727 5.7,-2.121 10.399,3.031 4.693,5.144 9.177,12.112 12.513,15.204 3.329,3.091 3.082,2.604 3.755,3.027 0.05,0.036 0.114,0.117 0.182,0.21 v -0.004 c -0.358,-1.673 0.66,-4.749 4.058,-5.612 3.393,-0.862 8.055,3.165 10.058,5.954 1.994,2.782 1.511,2.971 1.146,3.269 -0.358,0.305 -0.304,0.485 -4.41,-3.366 -4.109,-3.854 -6.184,-3.176 -7.219,-1.906 -1.029,1.273 2.06,5.392 3.272,6.792 3.214,-0.904 8.662,-0.728 12.12,2.48" style="fill:#ffffff;fill-opacity:1;fill-rule:nonzero;stroke:none" id="path174"/></g></g></g></g></svg>